<?xml version="1.0" encoding="utf-8"?>
<!-- Generator: Adobe Illustrator 25.0.0, SVG Export Plug-In . SVG Version: 6.00 Build 0)  -->
<svg version="1.1" id="Calque_1" xmlns="http://www.w3.org/2000/svg" xmlns:xlink="http://www.w3.org/1999/xlink" x="0px" y="0px"
	 viewBox="0 0 40 40" style="enable-background:new 0 0 40 40;" xml:space="preserve">
<style type="text/css">
	.st0{display:none;}
	.st1{display:inline;fill:#FFFFFF;}
	.st2{display:inline;}
	.st3{fill:#FFFFFF;}
	.st4{display:none;fill:#FFFFFF;}
</style>
<g id="sun" class="st0">
	<path class="st1" d="M28.23,18.79c0.67,4.55-2.48,8.77-7.02,9.44c-4.55,0.67-8.77-2.48-9.44-7.02c-0.67-4.55,2.48-8.77,7.02-9.44
		C23.34,11.1,27.56,14.24,28.23,18.79z"/>
	<g class="st2">
		<g>
			<path class="st3" d="M19.93,3.23c-0.72,0-1.3,0.58-1.29,1.3l0.01,3.5c0,0.72,0.59,1.3,1.3,1.29c0.72,0,1.3-0.59,1.29-1.3
				l-0.01-3.5C21.24,3.8,20.65,3.23,19.93,3.23z"/>
			<path class="st3" d="M20.07,36.77c0.72,0,1.3-0.58,1.29-1.3l-0.01-3.5c0-0.72-0.59-1.3-1.3-1.29c-0.72,0-1.3,0.59-1.29,1.3
				l0.01,3.5C18.76,36.2,19.35,36.77,20.07,36.77z"/>
		</g>
		<g>
			<path class="st3" d="M3.23,20.07c0,0.72,0.58,1.3,1.3,1.29l3.5-0.01c0.72,0,1.3-0.59,1.29-1.3c0-0.72-0.59-1.3-1.3-1.29
				l-3.5,0.01C3.8,18.76,3.23,19.35,3.23,20.07z"/>
			<path class="st3" d="M36.77,19.93c0-0.72-0.58-1.3-1.3-1.29l-3.5,0.01c-0.72,0-1.3,0.59-1.29,1.3c0,0.72,0.59,1.3,1.3,1.29
				l3.5-0.01C36.2,21.24,36.77,20.65,36.77,19.93z"/>
		</g>
	</g>
	<g class="st2">
		<g>
			<path class="st3" d="M8.1,8.19C7.59,8.7,7.59,9.52,8.1,10.02l2.49,2.47c0.51,0.51,1.33,0.5,1.84-0.01
				c0.51-0.51,0.5-1.33-0.01-1.84L9.93,8.18C9.42,7.67,8.6,7.68,8.1,8.19z"/>
			<path class="st3" d="M31.91,31.81c0.51-0.51,0.5-1.33-0.01-1.83l-2.49-2.47c-0.51-0.51-1.33-0.5-1.84,0.01
				c-0.51,0.51-0.5,1.33,0.01,1.84l2.48,2.47C30.58,32.33,31.4,32.32,31.91,31.81z"/>
		</g>
		<g>
			<path class="st3" d="M8.19,31.9c0.51,0.51,1.33,0.5,1.84-0.01l2.47-2.48c0.51-0.51,0.5-1.33-0.01-1.84
				c-0.51-0.51-1.33-0.5-1.84,0.01l-2.47,2.48C7.67,30.58,7.68,31.4,8.19,31.9z"/>
			<path class="st3" d="M31.81,8.1c-0.51-0.51-1.33-0.5-1.84,0.01l-2.47,2.49c-0.51,0.51-0.5,1.33,0.01,1.84
				c0.51,0.51,1.33,0.5,1.84-0.01l2.47-2.48C32.33,9.42,32.32,8.6,31.81,8.1z"/>
		</g>
	</g>
</g>
<g id="moon" class="st0">
	<path class="st1" d="M27.52,25.16c-5.86,0-10.62-4.75-10.62-10.62c0-1.81,0.46-3.52,1.26-5.01c-4.67,1.12-8.14,5.3-8.14,10.32
		c0,5.86,4.75,10.62,10.62,10.62c4.05,0,7.57-2.27,9.36-5.61C29.19,25.05,28.37,25.16,27.52,25.16z"/>
</g>
<g id="cloud" class="st0">
	<path class="st1" d="M27.93,29.04c3.6,0,6.52-2.92,6.52-6.52c0-3.6-2.92-6.52-6.52-6.52c-0.51,0-1,0.06-1.47,0.17
		c-0.91-3.01-3.7-5.2-7-5.2c-4.04,0-7.31,3.27-7.31,7.31c0,0.15,0.01,0.3,0.02,0.44c-0.44-0.12-0.9-0.19-1.38-0.19
		c-2.9,0-5.25,2.35-5.25,5.25s2.35,5.25,5.25,5.25H27.93z"/>
</g>
<g id="raini_1_" class="st0">
	<path class="st1" d="M27.93,22.92c3.6,0,6.52-2.92,6.52-6.52c0-3.6-2.92-6.52-6.52-6.52c-0.51,0-1,0.06-1.47,0.17
		c-0.91-3.01-3.7-5.2-7-5.2c-4.04,0-7.31,3.27-7.31,7.31c0,0.15,0.01,0.3,0.02,0.44c-0.44-0.12-0.9-0.19-1.38-0.19
		c-2.9,0-5.25,2.35-5.25,5.25s2.35,5.25,5.25,5.25H27.93z"/>
	<path class="st1" d="M15.83,30.62c-1.17,0.93-0.85,2.85,0.29,3.82c1.14,0.98,3.08,1.01,3.82-0.29c0.91-1.58,2.37-6.9,2.37-6.9
		S17.26,29.48,15.83,30.62z"/>
</g>
<g id="snowy" class="st0">
	<path class="st1" d="M27.93,22.81c3.6,0,6.52-2.92,6.52-6.52c0-3.6-2.92-6.52-6.52-6.52c-0.51,0-1,0.06-1.47,0.17
		c-0.91-3.01-3.7-5.2-7-5.2c-4.04,0-7.31,3.27-7.31,7.31c0,0.15,0.01,0.3,0.02,0.44c-0.44-0.12-0.9-0.19-1.38-0.19
		c-2.9,0-5.25,2.35-5.25,5.25s2.35,5.25,5.25,5.25H27.93z"/>
	<path class="st1" d="M23.9,29.78h-1.99l1.4-1.4c0.31-0.31,0.31-0.81,0-1.12c-0.31-0.31-0.81-0.31-1.12,0l-1.4,1.4v-1.99
		c0-0.44-0.36-0.79-0.79-0.79c-0.44,0-0.79,0.35-0.79,0.79v1.99l-1.41-1.41c-0.31-0.31-0.81-0.31-1.12,0
		c-0.31,0.31-0.31,0.81,0,1.12l1.4,1.4H16.1c-0.44,0-0.79,0.35-0.79,0.79c0,0.44,0.35,0.79,0.79,0.79h1.99l-1.41,1.41
		c-0.31,0.31-0.31,0.81,0,1.12c0.31,0.31,0.81,0.31,1.12,0l1.41-1.41v1.99c0,0.44,0.35,0.79,0.79,0.79c0.44,0,0.79-0.35,0.79-0.79
		v-1.99l1.4,1.41c0.31,0.31,0.81,0.31,1.12,0c0.31-0.31,0.31-0.81,0-1.12l-1.41-1.41h1.99c0.44,0,0.79-0.35,0.79-0.79
		C24.69,30.13,24.33,29.78,23.9,29.78z"/>
</g>
<g id="sleet" class="st0">
	<path class="st1" d="M27.93,23.98c3.6,0,6.52-2.92,6.52-6.52c0-3.6-2.92-6.52-6.52-6.52c-0.51,0-1,0.06-1.47,0.17
		c-0.91-3.01-3.7-5.2-7-5.2c-4.04,0-7.31,3.27-7.31,7.31c0,0.15,0.01,0.3,0.02,0.44c-0.44-0.12-0.9-0.19-1.38-0.19
		c-2.9,0-5.25,2.35-5.25,5.25s2.35,5.25,5.25,5.25H27.93z"/>
	<path class="st1" d="M17.01,30.7c0,1.87-1.52,3.39-3.39,3.39c-1.87,0-3.39-1.52-3.39-3.39c0-1.87,1.52-3.39,3.39-3.39
		C15.49,27.31,17.01,28.83,17.01,30.7z"/>
	<path class="st1" d="M29.15,30.7c0,1.87-1.52,3.39-3.39,3.39c-1.87,0-3.39-1.52-3.39-3.39c0-1.87,1.52-3.39,3.39-3.39
		C27.63,27.31,29.15,28.83,29.15,30.7z"/>
</g>
<g id="flashing" class="st0">
	<path class="st1" d="M27.93,20.31c3.6,0,6.52-2.92,6.52-6.52c0-3.6-2.92-6.52-6.52-6.52c-0.51,0-1,0.06-1.47,0.17
		c-0.91-3.01-3.7-5.2-7-5.2c-4.04,0-7.31,3.27-7.31,7.31c0,0.15,0.01,0.3,0.02,0.44c-0.44-0.12-0.9-0.19-1.38-0.19
		c-2.9,0-5.25,2.35-5.25,5.25s2.35,5.25,5.25,5.25H27.93z"/>
	<polygon class="st1" points="18.64,23.26 24.29,23.26 21.47,28.61 25.95,28.61 18.19,37.76 20,32.23 14.84,32.23 	"/>
</g>
<g id="raining" class="st0">
	<path class="st1" d="M27.93,22.19c3.6,0,6.52-2.92,6.52-6.52c0-3.6-2.92-6.52-6.52-6.52c-0.51,0-1,0.06-1.47,0.17
		c-0.91-3.01-3.7-5.2-7-5.2c-4.04,0-7.31,3.27-7.31,7.31c0,0.15,0.01,0.3,0.02,0.44c-0.44-0.12-0.9-0.19-1.38-0.19
		c-2.9,0-5.25,2.35-5.25,5.25s2.35,5.25,5.25,5.25H27.93z"/>
	<g class="st2">
		<g>
			<path class="st3" d="M11.01,27.71c-0.71,0.56-0.51,1.72,0.17,2.31c0.69,0.59,1.86,0.61,2.31-0.17c0.55-0.96,1.43-4.18,1.43-4.18
				S11.88,27.03,11.01,27.71z"/>
			<path class="st3" d="M15.85,27.71c-0.71,0.56-0.51,1.72,0.17,2.31c0.69,0.59,1.86,0.61,2.31-0.17c0.55-0.96,1.43-4.18,1.43-4.18
				S16.71,27.03,15.85,27.71z"/>
			<path class="st3" d="M20.68,27.71c-0.71,0.56-0.51,1.72,0.17,2.31c0.69,0.59,1.86,0.61,2.31-0.17c0.55-0.96,1.43-4.18,1.43-4.18
				S21.55,27.03,20.68,27.71z"/>
			<path class="st3" d="M25.51,27.71c-0.71,0.56-0.51,1.72,0.17,2.31c0.69,0.59,1.86,0.61,2.32-0.17c0.55-0.96,1.43-4.18,1.43-4.18
				S26.38,27.03,25.51,27.71z"/>
		</g>
		<g>
			<path class="st3" d="M16.31,33.42c-0.64,0.51-0.46,1.55,0.16,2.08c0.62,0.53,1.67,0.55,2.07-0.16c0.49-0.86,1.28-3.75,1.28-3.75
				S17.09,32.8,16.31,33.42z"/>
			<path class="st3" d="M20.64,33.42c-0.64,0.51-0.46,1.55,0.16,2.08c0.62,0.53,1.67,0.55,2.07-0.16c0.49-0.86,1.29-3.75,1.29-3.75
				S21.42,32.8,20.64,33.42z"/>
		</g>
	</g>
</g>
<g id="rain_and_snow" class="st0">
	<path class="st1" d="M27.93,23.29c3.6,0,6.52-2.92,6.52-6.52c0-3.6-2.92-6.52-6.52-6.52c-0.51,0-1,0.06-1.47,0.17
		c-0.91-3.01-3.7-5.2-7-5.2c-4.04,0-7.31,3.27-7.31,7.31c0,0.15,0.01,0.3,0.02,0.44c-0.44-0.12-0.9-0.19-1.38-0.19
		c-2.9,0-5.25,2.35-5.25,5.25s2.35,5.25,5.25,5.25H27.93z"/>
	<g class="st2">
		<path class="st3" d="M23.1,30.24c-1.17,0.93-0.85,2.85,0.29,3.82c1.13,0.98,3.08,1.01,3.82-0.29c0.91-1.58,2.37-6.91,2.37-6.91
			S24.53,29.11,23.1,30.24z"/>
		<path class="st3" d="M17.56,30.17h-1.65L17.08,29c0.26-0.26,0.26-0.67,0-0.93c-0.26-0.26-0.67-0.26-0.93,0l-1.17,1.17v-1.65
			c0-0.36-0.3-0.66-0.66-0.66c-0.36,0-0.66,0.29-0.66,0.66v1.65l-1.17-1.17c-0.26-0.26-0.67-0.26-0.93,0
			c-0.26,0.26-0.26,0.67,0,0.93l1.17,1.17h-1.65c-0.36,0-0.66,0.29-0.66,0.66c0,0.36,0.29,0.66,0.66,0.66h1.65l-1.17,1.17
			c-0.26,0.26-0.26,0.67,0,0.93c0.26,0.26,0.67,0.26,0.93,0l1.17-1.17v1.65c0,0.36,0.29,0.66,0.66,0.66c0.36,0,0.66-0.29,0.66-0.66
			v-1.65l1.17,1.17c0.26,0.26,0.67,0.26,0.93,0c0.26-0.26,0.26-0.67,0-0.93l-1.17-1.17h1.65c0.36,0,0.66-0.29,0.66-0.66
			C18.22,30.46,17.92,30.17,17.56,30.17z"/>
	</g>
</g>
<g id="rain_with_flashing" class="st0">
	<path class="st1" d="M27.93,20.31c3.6,0,6.52-2.92,6.52-6.52c0-3.6-2.92-6.52-6.52-6.52c-0.51,0-1,0.06-1.47,0.17
		c-0.91-3.01-3.7-5.2-7-5.2c-4.04,0-7.31,3.27-7.31,7.31c0,0.15,0.01,0.3,0.02,0.44c-0.44-0.12-0.9-0.19-1.38-0.19
		c-2.9,0-5.25,2.35-5.25,5.25s2.35,5.25,5.25,5.25H27.93z"/>
	<g class="st2">
		<path class="st3" d="M11.04,27.26c-1.17,0.93-0.85,2.85,0.29,3.82c1.13,0.98,3.08,1.01,3.82-0.29c0.91-1.58,2.37-6.91,2.37-6.91
			S12.47,26.13,11.04,27.26z"/>
		<polygon class="st3" points="22.4,23.26 28.04,23.26 25.22,28.61 29.7,28.61 21.94,37.76 23.75,32.23 18.59,32.23 		"/>
	</g>
</g>
<g id="soft_rain" class="st0">
	<path class="st1" d="M27.93,23.3c3.6,0,6.52-2.92,6.52-6.52c0-3.6-2.92-6.52-6.52-6.52c-0.51,0-1,0.06-1.47,0.17
		c-0.91-3.01-3.7-5.2-7-5.2c-4.04,0-7.31,3.27-7.31,7.31c0,0.15,0.01,0.29,0.02,0.44c-0.44-0.12-0.9-0.19-1.38-0.19
		c-2.9,0-5.25,2.35-5.25,5.25c0,2.9,2.35,5.25,5.25,5.25H27.93z"/>
	<path class="st1" d="M10.75,30.23c-1.17,0.93-0.85,2.85,0.29,3.82c1.13,0.98,3.08,1.01,3.82-0.29c0.91-1.58,2.37-6.91,2.37-6.91
		S12.18,29.1,10.75,30.23z"/>
	<path class="st1" d="M21.37,30.23c-1.17,0.93-0.85,2.85,0.29,3.82c1.13,0.98,3.08,1.01,3.82-0.29c0.91-1.58,2.37-6.91,2.37-6.91
		S22.8,29.1,21.37,30.23z"/>
</g>
<g id="temperature" class="st0">
	<path class="st1" d="M20,15.55c-1.1,0-1.99,0.89-1.99,1.99v7.07l-0.29,0.22c-0.97,0.73-1.52,1.83-1.52,3.03c0,2.1,1.71,3.8,3.8,3.8
		c2.1,0,3.8-1.7,3.8-3.8c0-1.2-0.55-2.31-1.52-3.03l-0.29-0.22v-7.07C21.99,16.44,21.1,15.55,20,15.55z"/>
	<path class="st1" d="M20,37.51c-5.35,0-9.69-4.35-9.69-9.69c0-2.83,1.21-5.46,3.33-7.3V8.85c0-3.51,2.85-6.36,6.36-6.36
		c3.51,0,6.36,2.85,6.36,6.36v11.67c2.13,1.84,3.33,4.47,3.33,7.3C29.69,33.17,25.35,37.51,20,37.51z M20,5.2
		c-2.01,0-3.65,1.64-3.65,3.65v12.99l-0.54,0.41c-1.77,1.34-2.79,3.37-2.79,5.57c0,3.85,3.13,6.98,6.98,6.98
		c3.85,0,6.98-3.13,6.98-6.98c0-2.21-1.02-4.24-2.79-5.57l-0.54-0.41V8.85C23.65,6.83,22.01,5.2,20,5.2z"/>
	<g class="st2">
		<rect x="25.87" y="9.75" class="st3" width="1.1" height="1.92"/>
		<rect x="25.87" y="13.63" class="st3" width="1.1" height="1.92"/>
		<rect x="25.87" y="17.52" class="st3" width="1.1" height="1.92"/>
	</g>
</g>
<g id="suny_with_clouds" class="st0">
	<g class="st2">
		<path class="st3" d="M24.18,6c-0.6,0-1.08,0.49-1.08,1.09l0.01,2.92c0,0.6,0.49,1.08,1.09,1.08c0.6,0,1.08-0.49,1.08-1.09
			l-0.01-2.92C25.26,6.48,24.78,5.99,24.18,6z"/>
		<path class="st3" d="M24.29,34c0.6,0,1.08-0.49,1.08-1.09l-0.01-2.92c0-0.6-0.49-1.08-1.09-1.08c-0.6,0-1.08,0.49-1.08,1.09
			l0.01,2.92C23.2,33.52,23.69,34.01,24.29,34z"/>
		<path class="st3" d="M38.24,19.95c0-0.6-0.49-1.08-1.09-1.08l-2.92,0.01c-0.6,0-1.08,0.49-1.08,1.09c0,0.6,0.49,1.08,1.09,1.08
			l2.92-0.01C37.76,21.03,38.24,20.55,38.24,19.95z"/>
		<path class="st3" d="M34.17,29.86c0.42-0.42,0.42-1.11-0.01-1.53l-2.08-2.06c-0.43-0.42-1.11-0.42-1.53,0.01
			c-0.42,0.42-0.42,1.11,0.01,1.53l2.07,2.06C33.07,30.29,33.75,30.29,34.17,29.86z"/>
		<path class="st3" d="M34.1,10.06c-0.43-0.42-1.11-0.42-1.53,0l-2.06,2.08c-0.42,0.43-0.42,1.11,0.01,1.53
			c0.43,0.42,1.11,0.42,1.53-0.01l2.06-2.07C34.52,11.17,34.52,10.48,34.1,10.06z"/>
	</g>
	<path class="st1" d="M24.15,26.52c3.6,0,6.52-2.92,6.52-6.52c0-3.6-2.92-6.52-6.52-6.52c-0.51,0-1,0.06-1.47,0.17
		c-0.91-3.01-3.7-5.2-7-5.2c-4.04,0-7.31,3.27-7.31,7.31c0,0.15,0.01,0.29,0.02,0.44c-0.44-0.12-0.9-0.19-1.38-0.19
		c-2.9,0-5.25,2.35-5.25,5.25c0,2.9,2.35,5.25,5.25,5.25H24.15z"/>
</g>
<g id="sunny_with_rain_clouds" class="st0">
	<g class="st2">
		<g>
			<path class="st3" d="M24.18,4.02c-0.6,0-1.08,0.49-1.08,1.09l0.01,2.92c0,0.6,0.49,1.08,1.09,1.08c0.6,0,1.08-0.49,1.08-1.09
				L25.27,5.1C25.26,4.5,24.78,4.02,24.18,4.02z"/>
			<path class="st3" d="M24.29,32.03c0.6,0,1.08-0.49,1.08-1.09l-0.01-2.92c0-0.6-0.49-1.08-1.09-1.08c-0.6,0-1.08,0.49-1.08,1.09
				l0.01,2.92C23.2,31.55,23.69,32.03,24.29,32.03z"/>
			<path class="st3" d="M38.24,17.97c0-0.6-0.49-1.08-1.09-1.08l-2.92,0.01c-0.6,0-1.08,0.49-1.08,1.09c0,0.6,0.49,1.08,1.09,1.08
				l2.92-0.01C37.76,19.06,38.24,18.57,38.24,17.97z"/>
			<path class="st3" d="M34.17,27.89c0.42-0.42,0.42-1.11,0-1.53l-2.08-2.06c-0.43-0.42-1.11-0.42-1.53,0.01
				c-0.42,0.42-0.42,1.11,0.01,1.53l2.07,2.06C33.07,28.32,33.75,28.31,34.17,27.89z"/>
			<path class="st3" d="M34.1,8.08c-0.43-0.42-1.11-0.42-1.53,0l-2.06,2.08c-0.42,0.43-0.42,1.11,0.01,1.53
				c0.43,0.42,1.11,0.42,1.53-0.01l2.06-2.07C34.53,9.19,34.52,8.51,34.1,8.08z"/>
		</g>
		<path class="st3" d="M24.15,24.55c3.6,0,6.52-2.92,6.52-6.52c0-3.6-2.92-6.52-6.52-6.52c-0.51,0-1,0.06-1.47,0.17
			c-0.91-3.01-3.7-5.2-7-5.2c-4.04,0-7.31,3.27-7.31,7.31c0,0.15,0.01,0.29,0.02,0.44c-0.44-0.12-0.9-0.19-1.38-0.19
			c-2.9,0-5.25,2.35-5.25,5.25c0,2.9,2.35,5.25,5.25,5.25H24.15z"/>
	</g>
	<path class="st1" d="M12,31.45c-1.17,0.93-0.85,2.85,0.29,3.82c1.13,0.98,3.08,1.01,3.82-0.29c0.91-1.58,2.37-6.91,2.37-6.91
		S13.43,30.31,12,31.45z"/>
</g>
<g id="suny_with_snow_clouds" class="st0">
	<g class="st2">
		<g>
			<path class="st3" d="M24.18,3.65c-0.6,0-1.08,0.49-1.08,1.09l0.01,2.92c0,0.6,0.49,1.08,1.09,1.08c0.6,0,1.08-0.49,1.08-1.09
				l-0.01-2.92C25.26,4.13,24.78,3.65,24.18,3.65z"/>
			<path class="st3" d="M24.29,31.66c0.6,0,1.08-0.49,1.08-1.09l-0.01-2.92c0-0.6-0.49-1.08-1.09-1.08c-0.6,0-1.08,0.49-1.08,1.09
				l0.01,2.92C23.2,31.18,23.69,31.66,24.29,31.66z"/>
			<path class="st3" d="M38.24,17.6c0-0.6-0.49-1.08-1.09-1.08l-2.92,0.01c-0.6,0-1.08,0.49-1.08,1.09c0,0.6,0.49,1.08,1.09,1.08
				l2.92-0.01C37.76,18.69,38.24,18.2,38.24,17.6z"/>
			<path class="st3" d="M34.17,27.52c0.42-0.42,0.42-1.11-0.01-1.53l-2.08-2.06c-0.43-0.42-1.11-0.42-1.53,0.01
				c-0.42,0.42-0.42,1.11,0.01,1.53l2.07,2.06C33.07,27.95,33.75,27.95,34.17,27.52z"/>
			<path class="st3" d="M34.1,7.72c-0.42-0.42-1.11-0.42-1.53,0L30.5,9.8c-0.42,0.43-0.42,1.11,0.01,1.53
				c0.43,0.42,1.11,0.42,1.53-0.01l2.06-2.07C34.52,8.82,34.52,8.14,34.1,7.72z"/>
		</g>
		<path class="st3" d="M24.15,24.18c3.6,0,6.52-2.92,6.52-6.52c0-3.6-2.92-6.52-6.52-6.52c-0.51,0-1,0.06-1.47,0.17
			c-0.91-3.01-3.7-5.2-7-5.2c-4.04,0-7.31,3.27-7.31,7.31c0,0.15,0.01,0.29,0.02,0.44c-0.44-0.12-0.9-0.19-1.38-0.19
			c-2.9,0-5.25,2.35-5.25,5.25c0,2.9,2.35,5.25,5.25,5.25H24.15z"/>
	</g>
	<path class="st1" d="M20.12,30.87h-1.99l1.41-1.4c0.31-0.31,0.31-0.81,0-1.12c-0.31-0.31-0.81-0.31-1.12,0l-1.4,1.4v-1.99
		c0-0.44-0.36-0.79-0.79-0.79c-0.44,0-0.79,0.36-0.79,0.79v1.99l-1.41-1.41c-0.31-0.31-0.81-0.31-1.12,0
		c-0.31,0.31-0.31,0.81,0,1.12l1.4,1.4h-1.99c-0.44,0-0.79,0.35-0.79,0.79c0,0.44,0.35,0.79,0.79,0.79h1.99l-1.41,1.41
		c-0.31,0.31-0.31,0.81,0,1.12c0.31,0.31,0.81,0.31,1.12,0l1.41-1.41v1.99c0,0.44,0.35,0.79,0.79,0.79c0.44,0,0.79-0.35,0.79-0.79
		v-1.99l1.4,1.4c0.31,0.31,0.81,0.31,1.12,0c0.31-0.31,0.31-0.81,0-1.12l-1.41-1.41h1.99c0.44,0,0.79-0.35,0.79-0.79
		C20.91,31.22,20.55,30.87,20.12,30.87z"/>
</g>
<g id="sun_and_flashing" class="st0">
	<g class="st2">
		<g>
			<path class="st3" d="M24.18,1.3c-0.6,0-1.08,0.49-1.08,1.09l0.01,2.92c0,0.6,0.49,1.08,1.09,1.08c0.6,0,1.08-0.49,1.08-1.09
				l-0.01-2.92C25.26,1.77,24.78,1.29,24.18,1.3z"/>
			<path class="st3" d="M24.29,29.3c0.6,0,1.08-0.49,1.08-1.09l-0.01-2.92c0-0.6-0.49-1.08-1.09-1.08c-0.6,0-1.08,0.49-1.08,1.09
				l0.01,2.92C23.2,28.82,23.69,29.3,24.29,29.3z"/>
			<path class="st3" d="M38.24,15.24c0-0.6-0.49-1.08-1.09-1.08l-2.92,0.01c-0.6,0-1.08,0.49-1.08,1.09c0,0.6,0.49,1.08,1.09,1.08
				l2.92-0.01C37.76,16.33,38.24,15.84,38.24,15.24z"/>
			<path class="st3" d="M34.17,25.16c0.42-0.42,0.42-1.11-0.01-1.53l-2.08-2.06c-0.43-0.42-1.11-0.42-1.53,0
				c-0.42,0.43-0.42,1.11,0.01,1.53l2.07,2.06C33.07,25.59,33.75,25.59,34.17,25.16z"/>
			<path class="st3" d="M34.1,5.36c-0.42-0.42-1.11-0.42-1.53,0.01L30.5,7.44c-0.42,0.43-0.42,1.11,0.01,1.53
				c0.43,0.42,1.11,0.42,1.53-0.01l2.06-2.07C34.53,6.47,34.52,5.78,34.1,5.36z"/>
		</g>
		<path class="st3" d="M24.15,21.82c3.6,0,6.52-2.92,6.52-6.52c0-3.6-2.92-6.52-6.52-6.52c-0.51,0-1,0.06-1.47,0.17
			c-0.91-3.01-3.7-5.2-7-5.2c-4.04,0-7.31,3.28-7.31,7.31c0,0.15,0.01,0.3,0.02,0.44c-0.44-0.12-0.9-0.19-1.38-0.19
			c-2.9,0-5.25,2.35-5.25,5.25c0,2.9,2.35,5.25,5.25,5.25H24.15z"/>
	</g>
	<polygon class="st1" points="13.19,24.21 18.83,24.21 16.01,29.56 20.49,29.56 12.73,38.7 14.54,33.17 9.38,33.17 	"/>
</g>
<g id="sun_and_snow" class="st0">
	<g class="st2">
		<g>
			<path class="st3" d="M24.18,4.48c-0.6,0-1.08,0.49-1.08,1.09l0.01,2.92c0,0.6,0.49,1.08,1.09,1.08c0.6,0,1.08-0.49,1.08-1.09
				l-0.01-2.92C25.26,4.96,24.78,4.48,24.18,4.48z"/>
			<path class="st3" d="M38.24,18.43c0-0.6-0.49-1.08-1.09-1.08l-2.92,0.01c-0.6,0-1.08,0.49-1.08,1.09c0,0.6,0.49,1.08,1.09,1.08
				l2.92-0.01C37.76,19.52,38.24,19.03,38.24,18.43z"/>
			<path class="st3" d="M34.17,28.35c0.42-0.42,0.42-1.11-0.01-1.53l-2.08-2.06c-0.43-0.42-1.11-0.42-1.53,0
				c-0.42,0.43-0.42,1.11,0.01,1.53l2.07,2.06C33.07,28.78,33.75,28.77,34.17,28.35z"/>
			<path class="st3" d="M34.1,8.54c-0.42-0.42-1.11-0.42-1.53,0.01l-2.06,2.08c-0.42,0.43-0.42,1.11,0.01,1.53
				c0.43,0.42,1.11,0.42,1.53-0.01l2.06-2.07C34.53,9.65,34.52,8.97,34.1,8.54z"/>
		</g>
		<path class="st3" d="M24.15,25.01c3.6,0,6.52-2.92,6.52-6.52c0-3.6-2.92-6.52-6.52-6.52c-0.51,0-1,0.06-1.47,0.17
			c-0.91-3.01-3.7-5.2-7-5.2c-4.04,0-7.31,3.28-7.31,7.31c0,0.15,0.01,0.3,0.02,0.44c-0.44-0.12-0.9-0.19-1.38-0.19
			c-2.9,0-5.25,2.35-5.25,5.25c0,2.9,2.35,5.25,5.25,5.25H24.15z"/>
	</g>
	<g class="st2">
		<path class="st3" d="M14.21,30.61h-1.78l1.26-1.26c0.28-0.28,0.28-0.73,0-1c-0.28-0.28-0.73-0.28-1,0l-1.26,1.26v-1.78
			c0-0.39-0.32-0.71-0.71-0.71c-0.39,0-0.71,0.32-0.71,0.71v1.78l-1.26-1.26c-0.28-0.28-0.72-0.28-1,0c-0.28,0.28-0.28,0.73,0,1
			l1.26,1.26H7.23c-0.39,0-0.71,0.32-0.71,0.71c0,0.39,0.32,0.71,0.71,0.71h1.78l-1.26,1.26c-0.28,0.27-0.28,0.72,0,1
			c0.28,0.27,0.72,0.27,1,0l1.26-1.26v1.78c0,0.39,0.32,0.71,0.71,0.71c0.39,0,0.71-0.32,0.71-0.71v-1.78l1.26,1.26
			c0.28,0.28,0.72,0.28,1,0c0.28-0.28,0.28-0.73,0-1l-1.26-1.26h1.78c0.39,0,0.71-0.32,0.71-0.71
			C14.92,30.93,14.6,30.61,14.21,30.61z"/>
		<path class="st3" d="M25.94,30.61h-1.78l1.26-1.26c0.28-0.28,0.28-0.73,0-1c-0.28-0.28-0.73-0.28-1,0l-1.26,1.26v-1.78
			c0-0.39-0.32-0.71-0.71-0.71c-0.39,0-0.71,0.32-0.71,0.71v1.78l-1.26-1.26c-0.28-0.28-0.72-0.28-1,0c-0.28,0.28-0.28,0.73,0,1
			l1.26,1.26h-1.78c-0.39,0-0.71,0.32-0.71,0.71c0,0.39,0.32,0.71,0.71,0.71h1.78l-1.26,1.26c-0.28,0.27-0.28,0.72,0,1
			c0.28,0.27,0.72,0.27,1,0l1.26-1.26v1.78c0,0.39,0.32,0.71,0.71,0.71c0.39,0,0.71-0.32,0.71-0.71v-1.78l1.26,1.26
			c0.28,0.28,0.72,0.28,1,0c0.28-0.28,0.28-0.73,0-1l-1.26-1.26h1.78c0.39,0,0.71-0.32,0.71-0.71
			C26.65,30.93,26.33,30.61,25.94,30.61z"/>
	</g>
</g>
<g id="night_snow" class="st0">
	<path class="st1" d="M22.39,25.53c3.6,0,6.52-2.92,6.52-6.52c0-3.6-2.92-6.52-6.52-6.52c-0.51,0-1,0.06-1.47,0.17
		c-0.91-3.01-3.7-5.2-7-5.2c-4.04,0-7.31,3.28-7.31,7.31c0,0.15,0.01,0.3,0.02,0.44c-0.44-0.12-0.9-0.19-1.38-0.19
		c-2.9,0-5.25,2.35-5.25,5.25c0,2.9,2.35,5.25,5.25,5.25H22.39z"/>
	<g class="st2">
		<path class="st3" d="M12.44,31.14h-1.78l1.26-1.26c0.28-0.28,0.28-0.73,0-1c-0.28-0.28-0.73-0.28-1,0l-1.26,1.26v-1.78
			c0-0.39-0.32-0.71-0.71-0.71c-0.39,0-0.71,0.32-0.71,0.71v1.78l-1.26-1.26c-0.28-0.28-0.72-0.28-1,0c-0.28,0.28-0.28,0.73,0,1
			l1.26,1.26H5.47c-0.39,0-0.71,0.32-0.71,0.71c0,0.39,0.32,0.71,0.71,0.71h1.78l-1.26,1.26c-0.28,0.27-0.28,0.72,0,1
			c0.28,0.27,0.72,0.27,1,0l1.26-1.26v1.78c0,0.39,0.32,0.71,0.71,0.71c0.39,0,0.71-0.32,0.71-0.71v-1.78l1.26,1.26
			c0.28,0.28,0.72,0.28,1,0c0.28-0.28,0.28-0.73,0-1l-1.26-1.26h1.78c0.39,0,0.71-0.32,0.71-0.71
			C13.15,31.46,12.83,31.14,12.44,31.14z"/>
		<path class="st3" d="M24.18,31.14H22.4l1.26-1.26c0.28-0.28,0.28-0.73,0-1c-0.28-0.28-0.72-0.28-1,0l-1.26,1.26v-1.78
			c0-0.39-0.32-0.71-0.71-0.71c-0.39,0-0.71,0.32-0.71,0.71v1.78l-1.26-1.26c-0.28-0.28-0.72-0.28-1,0c-0.28,0.28-0.28,0.73,0,1
			l1.26,1.26H17.2c-0.39,0-0.71,0.32-0.71,0.71c0,0.39,0.32,0.71,0.71,0.71h1.78l-1.26,1.26c-0.28,0.27-0.28,0.72,0,1
			c0.28,0.27,0.72,0.27,1,0l1.26-1.26v1.78c0,0.39,0.32,0.71,0.71,0.71c0.39,0,0.71-0.32,0.71-0.71v-1.78l1.26,1.26
			c0.28,0.28,0.73,0.28,1,0c0.28-0.28,0.28-0.73,0-1l-1.26-1.26h1.78c0.39,0,0.71-0.32,0.71-0.71
			C24.88,31.46,24.57,31.14,24.18,31.14z"/>
	</g>
	<path class="st1" d="M37.86,17.46c-5.07,0-9.18-4.11-9.18-9.18c0-1.57,0.39-3.04,1.08-4.33c-3.64,0.87-6.43,3.89-6.94,7.65
		c3.89,0.23,6.99,3.46,6.99,7.4c0,0.94-0.18,1.83-0.5,2.66c0.82,0.24,1.69,0.38,2.59,0.38c3.5,0,6.54-1.96,8.09-4.85
		C39.31,17.36,38.6,17.46,37.86,17.46z"/>
</g>
<g id="night_cloudi" class="st0">
	<path class="st1" d="M22.39,30.79c3.6,0,6.52-2.92,6.52-6.52c0-3.6-2.92-6.52-6.52-6.52c-0.51,0-1,0.06-1.47,0.17
		c-0.91-3.01-3.7-5.2-7-5.2c-4.04,0-7.31,3.28-7.31,7.31c0,0.15,0.01,0.3,0.02,0.44c-0.44-0.12-0.9-0.19-1.38-0.19
		c-2.9,0-5.25,2.35-5.25,5.25c0,2.9,2.35,5.25,5.25,5.25H22.39z"/>
	<path class="st1" d="M37.86,22.71c-5.07,0-9.18-4.11-9.18-9.18c0-1.57,0.4-3.04,1.08-4.33c-3.64,0.87-6.43,3.89-6.95,7.65
		c3.89,0.23,6.99,3.46,6.99,7.4c0,0.94-0.18,1.83-0.5,2.66c0.82,0.24,1.69,0.38,2.59,0.38c3.5,0,6.54-1.96,8.09-4.85
		C39.31,22.62,38.6,22.71,37.86,22.71z"/>
</g>
<g id="fog" class="st0">
	<path class="st1" d="M30.35,13.34H9.65c-0.5,0-0.9-0.4-0.9-0.9c0-0.5,0.41-0.9,0.9-0.9h20.71c0.5,0,0.9,0.4,0.9,0.9
		C31.26,12.93,30.85,13.34,30.35,13.34z"/>
	<path class="st1" d="M35.47,18.58H4.53c-0.61,0-1.11-0.5-1.11-1.1c0-0.61,0.5-1.11,1.11-1.11h30.95c0.61,0,1.11,0.49,1.11,1.11
		C36.58,18.09,36.08,18.58,35.47,18.58z"/>
	<path class="st1" d="M34.04,23.58H5.96c-0.58,0-1.05-0.47-1.05-1.05c0-0.58,0.47-1.05,1.05-1.05h28.08c0.58,0,1.05,0.47,1.05,1.05
		C35.09,23.1,34.62,23.58,34.04,23.58z"/>
	<path class="st1" d="M30.35,28.47H9.65c-0.5,0-0.9-0.4-0.9-0.9c0-0.5,0.41-0.9,0.9-0.9h20.71c0.5,0,0.9,0.4,0.9,0.9
		C31.26,28.07,30.85,28.47,30.35,28.47z"/>
</g>
<g id="rain_with_sleet">
	<g>
		<path class="st3" d="M27.93,23.39c3.6,0,6.52-2.92,6.52-6.52c0-3.6-2.92-6.52-6.52-6.52c-0.51,0-1,0.06-1.47,0.17
			c-0.91-3.01-3.7-5.2-7-5.2c-4.04,0-7.31,3.28-7.31,7.31c0,0.15,0.01,0.3,0.02,0.44c-0.44-0.12-0.9-0.19-1.38-0.19
			c-2.9,0-5.25,2.35-5.25,5.25c0,2.9,2.35,5.25,5.25,5.25H27.93z"/>
	</g>
	<g>
		<path class="st3" d="M11.17,30.14c-1.17,0.93-0.85,2.85,0.29,3.82c1.13,0.98,3.08,1.01,3.82-0.29c0.91-1.58,2.37-6.91,2.37-6.91
			S12.6,29.01,11.17,30.14z"/>
		<path class="st3" d="M29.57,30.73c0,1.87-1.52,3.39-3.39,3.39s-3.39-1.52-3.39-3.39c0-1.87,1.52-3.39,3.39-3.39
			S29.57,28.85,29.57,30.73z"/>
	</g>
</g>
<path id="water" class="st4" d="M9.95,24.69c0,5.55,4.5,10.05,10.05,10.05c5.55,0,10.05-4.5,10.05-10.05
	C30.05,18.93,20,5.26,20,5.26S9.95,19.04,9.95,24.69z"/>
<g id="wind" class="st0">
	<path class="st1" d="M7.13,34.49c-0.55,0-0.99-0.44-0.99-0.99V6.5c0-0.55,0.44-0.99,0.99-0.99c0.55,0,0.99,0.44,0.99,0.99V33.5
		C8.13,34.05,7.68,34.49,7.13,34.49z"/>
	<g class="st2">
		<polygon class="st3" points="20.29,18.87 24.13,18.42 24.13,8.01 20.29,7.56 		"/>
		<path class="st3" d="M32.07,8.93l-2.52-0.29v9.15l2.52-0.29c0.99-0.11,1.79-1.02,1.79-2.02v-4.54
			C33.86,9.95,33.05,9.04,32.07,8.93z"/>
		<path class="st3" d="M14.87,6.93l-2.55-0.3c-0.99-0.11-1.8,0.61-1.8,1.6v9.96c0,0.99,0.81,1.71,1.8,1.6l2.55-0.3V6.93z"/>
	</g>
</g>
</svg>
