<?xml version="1.0" encoding="utf-8"?>
<!-- Generator: Adobe Illustrator 25.0.0, SVG Export Plug-In . SVG Version: 6.00 Build 0)  -->
<svg version="1.1" id="Calque_1" xmlns="http://www.w3.org/2000/svg" xmlns:xlink="http://www.w3.org/1999/xlink" x="0px" y="0px"
	 viewBox="0 0 40 40" style="enable-background:new 0 0 40 40;" xml:space="preserve">
<style type="text/css">
	.st0{display:none;}
	.st1{display:inline;fill:#FFFFFF;}
	.st2{display:inline;}
	.st3{fill:#FFFFFF;}
	.st4{display:none;fill:#FFFFFF;}
</style>
<g id="sun" class="st0">
	<path class="st1" d="M28.2,18.8c0.7,4.5-2.5,8.8-7,9.4c-4.5,0.7-8.8-2.5-9.4-7c-0.7-4.5,2.5-8.8,7-9.4
		C23.3,11.1,27.6,14.2,28.2,18.8z"/>
	<g class="st2">
		<g>
			<path class="st3" d="M19.9,3.2c-0.7,0-1.3,0.6-1.3,1.3l0,3.5c0,0.7,0.6,1.3,1.3,1.3c0.7,0,1.3-0.6,1.3-1.3l0-3.5
				C21.2,3.8,20.6,3.2,19.9,3.2z"/>
			<path class="st3" d="M20.1,36.8c0.7,0,1.3-0.6,1.3-1.3l0-3.5c0-0.7-0.6-1.3-1.3-1.3c-0.7,0-1.3,0.6-1.3,1.3l0,3.5
				C18.8,36.2,19.4,36.8,20.1,36.8z"/>
		</g>
		<g>
			<path class="st3" d="M3.2,20.1c0,0.7,0.6,1.3,1.3,1.3l3.5,0c0.7,0,1.3-0.6,1.3-1.3c0-0.7-0.6-1.3-1.3-1.3l-3.5,0
				C3.8,18.8,3.2,19.4,3.2,20.1z"/>
			<path class="st3" d="M36.8,19.9c0-0.7-0.6-1.3-1.3-1.3l-3.5,0c-0.7,0-1.3,0.6-1.3,1.3c0,0.7,0.6,1.3,1.3,1.3l3.5,0
				C36.2,21.2,36.8,20.7,36.8,19.9z"/>
		</g>
	</g>
	<g class="st2">
		<g>
			<path class="st3" d="M8.1,8.2c-0.5,0.5-0.5,1.3,0,1.8l2.5,2.5c0.5,0.5,1.3,0.5,1.8,0s0.5-1.3,0-1.8L9.9,8.2
				C9.4,7.7,8.6,7.7,8.1,8.2z"/>
			<path class="st3" d="M31.9,31.8c0.5-0.5,0.5-1.3,0-1.8l-2.5-2.5c-0.5-0.5-1.3-0.5-1.8,0s-0.5,1.3,0,1.8l2.5,2.5
				C30.6,32.3,31.4,32.3,31.9,31.8z"/>
		</g>
		<g>
			<path class="st3" d="M8.2,31.9c0.5,0.5,1.3,0.5,1.8,0l2.5-2.5c0.5-0.5,0.5-1.3,0-1.8s-1.3-0.5-1.8,0l-2.5,2.5
				C7.7,30.6,7.7,31.4,8.2,31.9z"/>
			<path class="st3" d="M31.8,8.1c-0.5-0.5-1.3-0.5-1.8,0l-2.5,2.5c-0.5,0.5-0.5,1.3,0,1.8s1.3,0.5,1.8,0l2.5-2.5
				C32.3,9.4,32.3,8.6,31.8,8.1z"/>
		</g>
	</g>
</g>
<g id="moon" class="st0">
	<path class="st1" d="M27.5,25.2c-5.9,0-10.6-4.8-10.6-10.6c0-1.8,0.5-3.5,1.3-5c-4.7,1.1-8.1,5.3-8.1,10.3
		c0,5.9,4.8,10.6,10.6,10.6c4.1,0,7.6-2.3,9.4-5.6C29.2,25.1,28.4,25.2,27.5,25.2z"/>
</g>
<g id="cloud" class="st0">
	<path class="st1" d="M27.9,29c3.6,0,6.5-2.9,6.5-6.5S31.5,16,27.9,16c-0.5,0-1,0.1-1.5,0.2c-0.9-3-3.7-5.2-7-5.2
		c-4,0-7.3,3.3-7.3,7.3c0,0.1,0,0.3,0,0.4c-0.4-0.1-0.9-0.2-1.4-0.2c-2.9,0-5.2,2.4-5.2,5.2S7.9,29,10.8,29L27.9,29L27.9,29z"/>
</g>
<g id="raini_1_" class="st0">
	<path class="st1" d="M27.9,22.9c3.6,0,6.5-2.9,6.5-6.5s-2.9-6.5-6.5-6.5c-0.5,0-1,0.1-1.5,0.2c-0.9-3-3.7-5.2-7-5.2
		c-4,0-7.3,3.3-7.3,7.3c0,0.1,0,0.3,0,0.4c-0.4-0.1-0.9-0.2-1.4-0.2c-2.9,0-5.2,2.4-5.2,5.2s2.3,5.2,5.2,5.2L27.9,22.9L27.9,22.9z"
		/>
	<path class="st1" d="M15.8,30.6c-1.2,0.9-0.9,2.9,0.3,3.8c1.1,1,3.1,1,3.8-0.3c0.9-1.6,2.4-6.9,2.4-6.9S17.3,29.5,15.8,30.6z"/>
</g>
<g id="snowy" class="st0">
	<path class="st1" d="M27.9,22.8c3.6,0,6.5-2.9,6.5-6.5s-2.9-6.5-6.5-6.5c-0.5,0-1,0.1-1.5,0.2c-0.9-3-3.7-5.2-7-5.2
		c-4,0-7.3,3.3-7.3,7.3c0,0.1,0,0.3,0,0.4c-0.4-0.1-0.9-0.2-1.4-0.2c-2.9,0-5.2,2.4-5.2,5.2s2.3,5.2,5.2,5.2L27.9,22.8L27.9,22.8z"
		/>
	<path class="st1" d="M23.9,29.8h-2l1.4-1.4c0.3-0.3,0.3-0.8,0-1.1c-0.3-0.3-0.8-0.3-1.1,0l-1.4,1.4v-2c0-0.4-0.4-0.8-0.8-0.8
		c-0.4,0-0.8,0.4-0.8,0.8v2l-1.4-1.4c-0.3-0.3-0.8-0.3-1.1,0c-0.3,0.3-0.3,0.8,0,1.1l1.4,1.4h-2c-0.4,0-0.8,0.4-0.8,0.8
		s0.4,0.8,0.8,0.8h2l-1.4,1.4c-0.3,0.3-0.3,0.8,0,1.1c0.3,0.3,0.8,0.3,1.1,0l1.4-1.4v2c0,0.4,0.4,0.8,0.8,0.8s0.8-0.3,0.8-0.8v-2
		l1.4,1.4c0.3,0.3,0.8,0.3,1.1,0c0.3-0.3,0.3-0.8,0-1.1l-1.4-1.4h2c0.4,0,0.8-0.4,0.8-0.8C24.7,30.1,24.3,29.8,23.9,29.8z"/>
</g>
<g id="sleet" class="st0">
	<path class="st1" d="M27.9,24c3.6,0,6.5-2.9,6.5-6.5s-2.9-6.5-6.5-6.5c-0.5,0-1,0.1-1.5,0.2c-0.9-3-3.7-5.2-7-5.2
		c-4,0-7.3,3.3-7.3,7.3c0,0.1,0,0.3,0,0.4c-0.4-0.1-0.9-0.2-1.4-0.2c-2.9,0-5.2,2.4-5.2,5.2S7.9,24,10.8,24L27.9,24L27.9,24z"/>
	<path class="st1" d="M17,30.7c0,1.9-1.5,3.4-3.4,3.4s-3.4-1.5-3.4-3.4c0-1.9,1.5-3.4,3.4-3.4C15.5,27.3,17,28.8,17,30.7z"/>
	<path class="st1" d="M29.1,30.7c0,1.9-1.5,3.4-3.4,3.4c-1.9,0-3.4-1.5-3.4-3.4c0-1.9,1.5-3.4,3.4-3.4
		C27.6,27.3,29.1,28.8,29.1,30.7z"/>
</g>
<g id="flashing" class="st0">
	<path class="st1" d="M27.9,20.3c3.6,0,6.5-2.9,6.5-6.5s-2.9-6.5-6.5-6.5c-0.5,0-1,0.1-1.5,0.2c-0.9-3-3.7-5.2-7-5.2
		c-4,0-7.3,3.3-7.3,7.3c0,0.1,0,0.3,0,0.4c-0.4-0.1-0.9-0.2-1.4-0.2c-2.9,0-5.2,2.4-5.2,5.2s2.3,5.2,5.2,5.2L27.9,20.3L27.9,20.3z"
		/>
	<polygon class="st1" points="18.6,23.3 24.3,23.3 21.5,28.6 26,28.6 18.2,37.8 20,32.2 14.8,32.2 	"/>
</g>
<g id="raining" class="st0">
	<path class="st1" d="M27.9,22.2c3.6,0,6.5-2.9,6.5-6.5s-2.9-6.5-6.5-6.5c-0.5,0-1,0.1-1.5,0.2c-0.9-3-3.7-5.2-7-5.2
		c-4,0-7.3,3.3-7.3,7.3c0,0.1,0,0.3,0,0.4c-0.4-0.1-0.9-0.2-1.4-0.2c-2.9,0-5.2,2.4-5.2,5.2s2.3,5.2,5.2,5.2L27.9,22.2L27.9,22.2z"
		/>
	<g class="st2">
		<g>
			<path class="st3" d="M11,27.7c-0.7,0.6-0.5,1.7,0.2,2.3c0.7,0.6,1.9,0.6,2.3-0.2c0.6-1,1.4-4.2,1.4-4.2S11.9,27,11,27.7z"/>
			<path class="st3" d="M15.9,27.7c-0.7,0.6-0.5,1.7,0.2,2.3c0.7,0.6,1.9,0.6,2.3-0.2c0.5-1,1.4-4.2,1.4-4.2S16.7,27,15.9,27.7z"/>
			<path class="st3" d="M20.7,27.7c-0.7,0.6-0.5,1.7,0.2,2.3c0.7,0.6,1.9,0.6,2.3-0.2c0.5-1,1.4-4.2,1.4-4.2S21.5,27,20.7,27.7z"/>
			<path class="st3" d="M25.5,27.7c-0.7,0.6-0.5,1.7,0.2,2.3c0.7,0.6,1.9,0.6,2.3-0.2c0.5-1,1.4-4.2,1.4-4.2S26.4,27,25.5,27.7z"/>
		</g>
		<g>
			<path class="st3" d="M16.3,33.4c-0.6,0.5-0.5,1.5,0.2,2.1c0.6,0.5,1.7,0.5,2.1-0.2c0.5-0.9,1.3-3.8,1.3-3.8S17.1,32.8,16.3,33.4z
				"/>
			<path class="st3" d="M20.6,33.4c-0.6,0.5-0.5,1.5,0.2,2.1c0.6,0.5,1.7,0.5,2.1-0.2c0.5-0.9,1.3-3.8,1.3-3.8S21.4,32.8,20.6,33.4z
				"/>
		</g>
	</g>
</g>
<g id="rain_and_snow" class="st0">
	<path class="st1" d="M27.9,23.3c3.6,0,6.5-2.9,6.5-6.5s-2.9-6.5-6.5-6.5c-0.5,0-1,0.1-1.5,0.2c-0.9-3-3.7-5.2-7-5.2
		c-4,0-7.3,3.3-7.3,7.3c0,0.1,0,0.3,0,0.4c-0.4-0.1-0.9-0.2-1.4-0.2c-2.9,0-5.2,2.4-5.2,5.2s2.3,5.2,5.2,5.2L27.9,23.3L27.9,23.3z"
		/>
	<g class="st2">
		<path class="st3" d="M23.1,30.2c-1.2,0.9-0.9,2.9,0.3,3.8c1.1,1,3.1,1,3.8-0.3c0.9-1.6,2.4-6.9,2.4-6.9S24.5,29.1,23.1,30.2z"/>
		<path class="st3" d="M17.6,30.2h-1.6l1.2-1.2c0.3-0.3,0.3-0.7,0-0.9s-0.7-0.3-0.9,0L15,29.2v-1.6c0-0.4-0.3-0.7-0.7-0.7
			s-0.7,0.3-0.7,0.7v1.6l-1.2-1.2c-0.3-0.3-0.7-0.3-0.9,0s-0.3,0.7,0,0.9l1.2,1.2h-1.6c-0.4,0-0.7,0.3-0.7,0.7
			c0,0.4,0.3,0.7,0.7,0.7h1.6l-1.2,1.2c-0.3,0.3-0.3,0.7,0,0.9c0.3,0.3,0.7,0.3,0.9,0l1.2-1.2v1.7c0,0.4,0.3,0.7,0.7,0.7
			c0.4,0,0.7-0.3,0.7-0.7v-1.7l1.2,1.2c0.3,0.3,0.7,0.3,0.9,0s0.3-0.7,0-0.9l-1.2-1.2h1.6c0.4,0,0.7-0.3,0.7-0.7
			C18.2,30.5,17.9,30.2,17.6,30.2z"/>
	</g>
</g>
<g id="rain_with_flashing" class="st0">
	<path class="st1" d="M27.9,20.3c3.6,0,6.5-2.9,6.5-6.5s-2.9-6.5-6.5-6.5c-0.5,0-1,0.1-1.5,0.2c-0.9-3-3.7-5.2-7-5.2
		c-4,0-7.3,3.3-7.3,7.3c0,0.1,0,0.3,0,0.4c-0.4-0.1-0.9-0.2-1.4-0.2c-2.9,0-5.2,2.4-5.2,5.2s2.3,5.2,5.2,5.2L27.9,20.3L27.9,20.3z"
		/>
	<g class="st2">
		<path class="st3" d="M11,27.3c-1.2,0.9-0.9,2.9,0.3,3.8c1.1,1,3.1,1,3.8-0.3c0.9-1.6,2.4-6.9,2.4-6.9S12.5,26.1,11,27.3z"/>
		<polygon class="st3" points="22.4,23.3 28,23.3 25.2,28.6 29.7,28.6 21.9,37.8 23.8,32.2 18.6,32.2 		"/>
	</g>
</g>
<g id="soft_rain" class="st0">
	<path class="st1" d="M27.9,23.3c3.6,0,6.5-2.9,6.5-6.5s-2.9-6.5-6.5-6.5c-0.5,0-1,0.1-1.5,0.2c-0.9-3-3.7-5.2-7-5.2
		c-4,0-7.3,3.3-7.3,7.3c0,0.1,0,0.3,0,0.4c-0.4-0.1-0.9-0.2-1.4-0.2c-2.9,0-5.2,2.4-5.2,5.2s2.3,5.2,5.2,5.2L27.9,23.3L27.9,23.3z"
		/>
	<path class="st1" d="M10.8,30.2c-1.2,0.9-0.9,2.8,0.3,3.8c1.1,1,3.1,1,3.8-0.3c0.9-1.6,2.4-6.9,2.4-6.9S12.2,29.1,10.8,30.2z"/>
	<path class="st1" d="M21.4,30.2c-1.2,0.9-0.9,2.8,0.3,3.8c1.1,1,3.1,1,3.8-0.3c0.9-1.6,2.4-6.9,2.4-6.9S22.8,29.1,21.4,30.2z"/>
</g>
<g id="temperature" class="st0">
	<path class="st1" d="M20,15.6c-1.1,0-2,0.9-2,2v7.1l-0.3,0.2c-1,0.7-1.5,1.8-1.5,3c0,2.1,1.7,3.8,3.8,3.8c2.1,0,3.8-1.7,3.8-3.8
		c0-1.2-0.5-2.3-1.5-3L22,24.6v-7.1C22,16.4,21.1,15.6,20,15.6z"/>
	<path class="st1" d="M20,37.5c-5.4,0-9.7-4.3-9.7-9.7c0-2.8,1.2-5.5,3.3-7.3V8.9c0-3.5,2.8-6.4,6.4-6.4s6.4,2.8,6.4,6.4v11.7
		c2.1,1.8,3.3,4.5,3.3,7.3C29.7,33.2,25.4,37.5,20,37.5z M20,5.2c-2,0-3.6,1.6-3.6,3.7v13l-0.5,0.4C14,23.6,13,25.6,13,27.8
		c0,3.9,3.1,7,7,7s7-3.1,7-7c0-2.2-1-4.2-2.8-5.6l-0.5-0.4v-13C23.6,6.8,22,5.2,20,5.2z"/>
	<g class="st2">
		<rect x="25.9" y="9.8" class="st3" width="1.1" height="1.9"/>
		<rect x="25.9" y="13.6" class="st3" width="1.1" height="1.9"/>
		<rect x="25.9" y="17.5" class="st3" width="1.1" height="1.9"/>
	</g>
</g>
<g id="suny_with_clouds">
	<g>
		<path class="st3" d="M24.3,6c-0.6,0-1.1,0.5-1.1,1.1l0,2.9c0,0.6,0.5,1.1,1.1,1.1s1.1-0.5,1.1-1.1l0-2.9C25.4,6.5,24.9,6,24.3,6z"
			/>
		<path class="st3" d="M38.4,20c0-0.6-0.5-1.1-1.1-1.1l-2.9,0c-0.6,0-1.1,0.5-1.1,1.1s0.5,1.1,1.1,1.1l2.9,0
			C37.9,21,38.4,20.6,38.4,20z"/>
		<path class="st3" d="M34.3,28.3l-2.1-2.1C32,26.1,31.8,26,31.5,26c-0.1,0.8-0.2,1.5-0.5,2.2l1.7,1.7c0.4,0.4,1.1,0.4,1.5,0
			C34.7,29.4,34.7,28.7,34.3,28.3z"/>
		<path class="st3" d="M34.2,10.1c-0.4-0.4-1.1-0.4-1.5,0l-2.1,2.1c-0.4,0.4-0.4,1.1,0,1.5s1.1,0.4,1.5,0l2.1-2.1
			C34.6,11.2,34.6,10.5,34.2,10.1z"/>
		<path class="st3" d="M24,32.9l-0.7,0c0,0.6,0.5,1.1,1.1,1.1c0.6,0,1.1-0.5,1.1-1.1l0-0.1C25,32.9,24.5,32.9,24,32.9z"/>
	</g>
	<path class="st3" d="M23.2,17.9c0.3,0,0.5,0,0.8,0c2.8,0,5.2,1.5,6.5,3.8c0.2-0.5,0.2-1.1,0.2-1.7c0-3.6-2.9-6.5-6.5-6.5
		c-1.4,0-2.6,0.4-3.7,1.1C21.7,15.5,22.6,16.6,23.2,17.9z"/>
	<path class="st3" d="M24,31.9c3.6,0,6.5-2.9,6.5-6.5s-2.9-6.5-6.5-6.5c-0.5,0-1,0.1-1.5,0.2c-0.9-3-3.7-5.2-7-5.2
		c-4,0-7.3,3.3-7.3,7.3c0,0.1,0,0.3,0,0.4c-0.4-0.1-0.9-0.2-1.4-0.2c-2.9,0-5.2,2.4-5.2,5.2s2.3,5.2,5.2,5.2L24,31.9L24,31.9z"/>
</g>
<g id="sunny_with_rain_clouds" class="st0">
	<g class="st2">
		<g>
			<path class="st3" d="M24.2,4c-0.6,0-1.1,0.5-1.1,1.1l0,2.9c0,0.6,0.5,1.1,1.1,1.1s1.1-0.5,1.1-1.1l0-2.9C25.3,4.5,24.8,4,24.2,4z
				"/>
			<path class="st3" d="M24.3,32c0.6,0,1.1-0.5,1.1-1.1l0-2.9c0-0.6-0.5-1.1-1.1-1.1s-1.1,0.5-1.1,1.1l0,2.9
				C23.2,31.6,23.7,32,24.3,32z"/>
			<path class="st3" d="M38.2,18c0-0.6-0.5-1.1-1.1-1.1l-2.9,0c-0.6,0-1.1,0.5-1.1,1.1s0.5,1.1,1.1,1.1l2.9,0
				C37.8,19.1,38.2,18.6,38.2,18z"/>
			<path class="st3" d="M34.2,27.9c0.4-0.4,0.4-1.1,0-1.5l-2.1-2.1c-0.4-0.4-1.1-0.4-1.5,0c-0.4,0.4-0.4,1.1,0,1.5l2.1,2.1
				C33.1,28.3,33.8,28.3,34.2,27.9z"/>
			<path class="st3" d="M34.1,8.1c-0.4-0.4-1.1-0.4-1.5,0l-2.1,2.1c-0.4,0.4-0.4,1.1,0,1.5s1.1,0.4,1.5,0l2.1-2.1
				C34.5,9.2,34.5,8.5,34.1,8.1z"/>
		</g>
		<path class="st3" d="M24.1,24.6c3.6,0,6.5-2.9,6.5-6.5s-2.9-6.5-6.5-6.5c-0.5,0-1,0.1-1.5,0.2c-0.9-3-3.7-5.2-7-5.2
			c-4,0-7.3,3.3-7.3,7.3c0,0.1,0,0.3,0,0.4C8,14.1,7.5,14,7,14c-2.9,0-5.2,2.4-5.2,5.2s2.3,5.2,5.2,5.2L24.1,24.6L24.1,24.6z"/>
	</g>
	<path class="st1" d="M12,31.5c-1.2,0.9-0.9,2.8,0.3,3.8c1.1,1,3.1,1,3.8-0.3c0.9-1.6,2.4-6.9,2.4-6.9S13.4,30.3,12,31.5z"/>
</g>
<g id="suny_with_snow_clouds" class="st0">
	<g class="st2">
		<g>
			<path class="st3" d="M24.2,3.7c-0.6,0-1.1,0.5-1.1,1.1l0,2.9c0,0.6,0.5,1.1,1.1,1.1s1.1-0.5,1.1-1.1l0-2.9
				C25.3,4.1,24.8,3.7,24.2,3.7z"/>
			<path class="st3" d="M24.3,31.7c0.6,0,1.1-0.5,1.1-1.1l0-2.9c0-0.6-0.5-1.1-1.1-1.1s-1.1,0.5-1.1,1.1l0,2.9
				C23.2,31.2,23.7,31.7,24.3,31.7z"/>
			<path class="st3" d="M38.2,17.6c0-0.6-0.5-1.1-1.1-1.1l-2.9,0c-0.6,0-1.1,0.5-1.1,1.1s0.5,1.1,1.1,1.1l2.9,0
				C37.8,18.7,38.2,18.2,38.2,17.6z"/>
			<path class="st3" d="M34.2,27.5c0.4-0.4,0.4-1.1,0-1.5l-2.1-2.1c-0.4-0.4-1.1-0.4-1.5,0c-0.4,0.4-0.4,1.1,0,1.5l2.1,2.1
				C33.1,28,33.8,28,34.2,27.5z"/>
			<path class="st3" d="M34.1,7.7c-0.4-0.4-1.1-0.4-1.5,0l-2.1,2.1c-0.4,0.4-0.4,1.1,0,1.5s1.1,0.4,1.5,0l2.1-2.1
				C34.5,8.8,34.5,8.1,34.1,7.7z"/>
		</g>
		<path class="st3" d="M24.1,24.2c3.6,0,6.5-2.9,6.5-6.5s-2.9-6.5-6.5-6.5c-0.5,0-1,0.1-1.5,0.2c-0.9-3-3.7-5.2-7-5.2
			c-4,0-7.3,3.3-7.3,7.3c0,0.1,0,0.3,0,0.4C8,13.7,7.5,13.7,7,13.7c-2.9,0-5.2,2.4-5.2,5.2s2.3,5.2,5.2,5.2L24.1,24.2L24.1,24.2z"/>
	</g>
	<path class="st1" d="M20.1,30.9h-2l1.4-1.4c0.3-0.3,0.3-0.8,0-1.1c-0.3-0.3-0.8-0.3-1.1,0L17,29.8v-2c0-0.4-0.4-0.8-0.8-0.8
		c-0.4,0-0.8,0.4-0.8,0.8v2L14,28.3c-0.3-0.3-0.8-0.3-1.1,0c-0.3,0.3-0.3,0.8,0,1.1l1.4,1.4h-2c-0.4,0-0.8,0.4-0.8,0.8
		c0,0.4,0.4,0.8,0.8,0.8h2l-1.4,1.4c-0.3,0.3-0.3,0.8,0,1.1c0.3,0.3,0.8,0.3,1.1,0l1.4-1.4v2c0,0.4,0.4,0.8,0.8,0.8
		c0.4,0,0.8-0.3,0.8-0.8v-2l1.4,1.4c0.3,0.3,0.8,0.3,1.1,0c0.3-0.3,0.3-0.8,0-1.1l-1.4-1.4h2c0.4,0,0.8-0.3,0.8-0.8
		C20.9,31.2,20.5,30.9,20.1,30.9z"/>
</g>
<g id="sun_and_flashing" class="st0">
	<g class="st2">
		<g>
			<path class="st3" d="M24.2,1.3c-0.6,0-1.1,0.5-1.1,1.1l0,2.9c0,0.6,0.5,1.1,1.1,1.1s1.1-0.5,1.1-1.1l0-2.9
				C25.3,1.8,24.8,1.3,24.2,1.3z"/>
			<path class="st3" d="M24.3,29.3c0.6,0,1.1-0.5,1.1-1.1l0-2.9c0-0.6-0.5-1.1-1.1-1.1s-1.1,0.5-1.1,1.1l0,2.9
				C23.2,28.8,23.7,29.3,24.3,29.3z"/>
			<path class="st3" d="M38.2,15.2c0-0.6-0.5-1.1-1.1-1.1l-2.9,0c-0.6,0-1.1,0.5-1.1,1.1s0.5,1.1,1.1,1.1l2.9,0
				C37.8,16.3,38.2,15.8,38.2,15.2z"/>
			<path class="st3" d="M34.2,25.2c0.4-0.4,0.4-1.1,0-1.5l-2.1-2.1c-0.4-0.4-1.1-0.4-1.5,0c-0.4,0.4-0.4,1.1,0,1.5l2.1,2.1
				C33.1,25.6,33.8,25.6,34.2,25.2z"/>
			<path class="st3" d="M34.1,5.4c-0.4-0.4-1.1-0.4-1.5,0l-2.1,2.1c-0.4,0.4-0.4,1.1,0,1.5s1.1,0.4,1.5,0l2.1-2.1
				C34.5,6.5,34.5,5.8,34.1,5.4z"/>
		</g>
		<path class="st3" d="M24.1,21.8c3.6,0,6.5-2.9,6.5-6.5s-2.9-6.5-6.5-6.5c-0.5,0-1,0.1-1.5,0.2c-0.9-3-3.7-5.2-7-5.2
			c-4,0-7.3,3.3-7.3,7.3c0,0.1,0,0.3,0,0.4C8,11.4,7.5,11.3,7,11.3c-2.9,0-5.2,2.4-5.2,5.2s2.3,5.2,5.2,5.2L24.1,21.8L24.1,21.8z"/>
	</g>
	<polygon class="st1" points="13.2,24.2 18.8,24.2 16,29.6 20.5,29.6 12.7,38.7 14.5,33.2 9.4,33.2 	"/>
</g>
<g id="sun_and_snow" class="st0">
	<g class="st2">
		<g>
			<path class="st3" d="M24.2,4.5c-0.6,0-1.1,0.5-1.1,1.1l0,2.9c0,0.6,0.5,1.1,1.1,1.1s1.1-0.5,1.1-1.1l0-2.9
				C25.3,5,24.8,4.5,24.2,4.5z"/>
			<path class="st3" d="M38.2,18.4c0-0.6-0.5-1.1-1.1-1.1l-2.9,0c-0.6,0-1.1,0.5-1.1,1.1s0.5,1.1,1.1,1.1l2.9,0
				C37.8,19.5,38.2,19,38.2,18.4z"/>
			<path class="st3" d="M34.2,28.4c0.4-0.4,0.4-1.1,0-1.5l-2.1-2.1c-0.4-0.4-1.1-0.4-1.5,0c-0.4,0.4-0.4,1.1,0,1.5l2.1,2.1
				C33.1,28.8,33.8,28.8,34.2,28.4z"/>
			<path class="st3" d="M34.1,8.5c-0.4-0.4-1.1-0.4-1.5,0l-2.1,2.1c-0.4,0.4-0.4,1.1,0,1.5s1.1,0.4,1.5,0l2.1-2.1
				C34.5,9.7,34.5,9,34.1,8.5z"/>
		</g>
		<path class="st3" d="M24.1,25c3.6,0,6.5-2.9,6.5-6.5S27.8,12,24.1,12c-0.5,0-1,0.1-1.5,0.2c-0.9-3-3.7-5.2-7-5.2
			c-4,0-7.3,3.3-7.3,7.3c0,0.1,0,0.3,0,0.4C8,14.6,7.5,14.5,7,14.5c-2.9,0-5.2,2.4-5.2,5.2S4.1,25,7,25L24.1,25L24.1,25z"/>
	</g>
	<g class="st2">
		<path class="st3" d="M14.2,30.6h-1.8l1.3-1.3c0.3-0.3,0.3-0.7,0-1c-0.3-0.3-0.7-0.3-1,0l-1.3,1.3v-1.8c0-0.4-0.3-0.7-0.7-0.7
			S10,27.4,10,27.8v1.8l-1.3-1.3c-0.3-0.3-0.7-0.3-1,0c-0.3,0.3-0.3,0.7,0,1L9,30.6H7.2c-0.4,0-0.7,0.3-0.7,0.7S6.8,32,7.2,32H9
			l-1.3,1.3c-0.3,0.3-0.3,0.7,0,1c0.3,0.3,0.7,0.3,1,0L10,33v1.8c0,0.4,0.3,0.7,0.7,0.7s0.7-0.3,0.7-0.7V33l1.3,1.3
			c0.3,0.3,0.7,0.3,1,0s0.3-0.7,0-1L12.4,32h1.8c0.4,0,0.7-0.3,0.7-0.7S14.6,30.6,14.2,30.6z"/>
		<path class="st3" d="M25.9,30.6h-1.8l1.3-1.3c0.3-0.3,0.3-0.7,0-1c-0.3-0.3-0.7-0.3-1,0l-1.3,1.3v-1.8c0-0.4-0.3-0.7-0.7-0.7
			s-0.7,0.3-0.7,0.7v1.8l-1.3-1.3c-0.3-0.3-0.7-0.3-1,0s-0.3,0.7,0,1l1.3,1.3H19c-0.4,0-0.7,0.3-0.7,0.7S18.6,32,19,32h1.8l-1.3,1.3
			c-0.3,0.3-0.3,0.7,0,1c0.3,0.3,0.7,0.3,1,0l1.3-1.3v1.8c0,0.4,0.3,0.7,0.7,0.7s0.7-0.3,0.7-0.7V33l1.3,1.3c0.3,0.3,0.7,0.3,1,0
			s0.3-0.7,0-1L24.2,32h1.8c0.4,0,0.7-0.3,0.7-0.7S26.3,30.6,25.9,30.6z"/>
	</g>
</g>
<g id="night_snow" class="st0">
	<path class="st1" d="M22.4,25.5c3.6,0,6.5-2.9,6.5-6.5s-2.9-6.5-6.5-6.5c-0.5,0-1,0.1-1.5,0.2c-0.9-3-3.7-5.2-7-5.2
		c-4,0-7.3,3.3-7.3,7.3c0,0.1,0,0.3,0,0.4C6.2,15.1,5.7,15,5.2,15C2.3,15,0,17.4,0,20.3s2.3,5.2,5.2,5.2L22.4,25.5L22.4,25.5z"/>
	<g class="st2">
		<path class="st3" d="M12.4,31.1h-1.8l1.3-1.3c0.3-0.3,0.3-0.7,0-1c-0.3-0.3-0.7-0.3-1,0l-1.3,1.3v-1.8c0-0.4-0.3-0.7-0.7-0.7
			S8.2,28,8.2,28.4v1.8L7,28.9c-0.3-0.3-0.7-0.3-1,0c-0.3,0.3-0.3,0.7,0,1l1.3,1.3H5.5c-0.4,0-0.7,0.3-0.7,0.7s0.3,0.7,0.7,0.7h1.8
			L6,33.8c-0.3,0.3-0.3,0.7,0,1c0.3,0.3,0.7,0.3,1,0l1.3-1.3v1.8c0,0.4,0.3,0.7,0.7,0.7s0.7-0.3,0.7-0.7v-1.8l1.3,1.3
			c0.3,0.3,0.7,0.3,1,0s0.3-0.7,0-1l-1.3-1.3h1.8c0.4,0,0.7-0.3,0.7-0.7C13.1,31.5,12.8,31.1,12.4,31.1z"/>
		<path class="st3" d="M24.2,31.1h-1.8l1.3-1.3c0.3-0.3,0.3-0.7,0-1c-0.3-0.3-0.7-0.3-1,0l-1.3,1.3v-1.8c0-0.4-0.3-0.7-0.7-0.7
			S20,28,20,28.4v1.8l-1.3-1.3c-0.3-0.3-0.7-0.3-1,0s-0.3,0.7,0,1l1.3,1.3h-1.8c-0.4,0-0.7,0.3-0.7,0.7s0.3,0.7,0.7,0.7H19l-1.3,1.3
			c-0.3,0.3-0.3,0.7,0,1c0.3,0.3,0.7,0.3,1,0l1.3-1.3v1.8c0,0.4,0.3,0.7,0.7,0.7s0.7-0.3,0.7-0.7v-1.8l1.3,1.3c0.3,0.3,0.7,0.3,1,0
			c0.3-0.3,0.3-0.7,0-1l-1.3-1.3h1.8c0.4,0,0.7-0.3,0.7-0.7C24.9,31.5,24.6,31.1,24.2,31.1z"/>
	</g>
	<path class="st1" d="M37.9,17.5c-5.1,0-9.2-4.1-9.2-9.2c0-1.6,0.4-3,1.1-4.3c-3.6,0.9-6.4,3.9-6.9,7.6c3.9,0.2,7,3.5,7,7.4
		c0,0.9-0.2,1.8-0.5,2.7c0.8,0.2,1.7,0.4,2.6,0.4c3.5,0,6.5-2,8.1-4.9C39.3,17.4,38.6,17.5,37.9,17.5z"/>
</g>
<g id="night_cloudi" class="st0">
	<path class="st1" d="M22.4,30.8c3.6,0,6.5-2.9,6.5-6.5s-2.9-6.5-6.5-6.5c-0.5,0-1,0.1-1.5,0.2c-0.9-3-3.7-5.2-7-5.2
		c-4,0-7.3,3.3-7.3,7.3c0,0.1,0,0.3,0,0.4c-0.4-0.1-0.9-0.2-1.4-0.2c-2.9,0-5.2,2.4-5.2,5.2s2.3,5.2,5.2,5.2L22.4,30.8L22.4,30.8z"
		/>
	<path class="st1" d="M37.9,22.7c-5.1,0-9.2-4.1-9.2-9.2c0-1.6,0.4-3,1.1-4.3c-3.6,0.9-6.4,3.9-6.9,7.6c3.9,0.2,7,3.5,7,7.4
		c0,0.9-0.2,1.8-0.5,2.7c0.8,0.2,1.7,0.4,2.6,0.4c3.5,0,6.5-2,8.1-4.9C39.3,22.6,38.6,22.7,37.9,22.7z"/>
</g>
<g id="fog" class="st0">
	<path class="st1" d="M30.4,13.3H9.6c-0.5,0-0.9-0.4-0.9-0.9s0.4-0.9,0.9-0.9h20.7c0.5,0,0.9,0.4,0.9,0.9
		C31.3,12.9,30.9,13.3,30.4,13.3z"/>
	<path class="st1" d="M35.5,18.6H4.5c-0.6,0-1.1-0.5-1.1-1.1c0-0.6,0.5-1.1,1.1-1.1h30.9c0.6,0,1.1,0.5,1.1,1.1
		C36.6,18.1,36.1,18.6,35.5,18.6z"/>
	<path class="st1" d="M34,23.6H6c-0.6,0-1.1-0.5-1.1-1s0.5-1,1.1-1H34c0.6,0,1,0.5,1,1C35.1,23.1,34.6,23.6,34,23.6z"/>
	<path class="st1" d="M30.4,28.5H9.6c-0.5,0-0.9-0.4-0.9-0.9s0.4-0.9,0.9-0.9h20.7c0.5,0,0.9,0.4,0.9,0.9
		C31.3,28.1,30.9,28.5,30.4,28.5z"/>
</g>
<g id="rain_with_sleet" class="st0">
	<g class="st2">
		<path class="st3" d="M27.9,23.4c3.6,0,6.5-2.9,6.5-6.5s-2.9-6.5-6.5-6.5c-0.5,0-1,0.1-1.5,0.2c-0.9-3-3.7-5.2-7-5.2
			c-4,0-7.3,3.3-7.3,7.3c0,0.1,0,0.3,0,0.4c-0.4-0.1-0.9-0.2-1.4-0.2c-2.9,0-5.2,2.4-5.2,5.2s2.3,5.2,5.2,5.2L27.9,23.4L27.9,23.4z"
			/>
	</g>
	<g class="st2">
		<path class="st3" d="M11.2,30.1C10,31.1,10.3,33,11.5,34c1.1,1,3.1,1,3.8-0.3c0.9-1.6,2.4-6.9,2.4-6.9S12.6,29,11.2,30.1z"/>
		<path class="st3" d="M29.6,30.7c0,1.9-1.5,3.4-3.4,3.4s-3.4-1.5-3.4-3.4c0-1.9,1.5-3.4,3.4-3.4S29.6,28.9,29.6,30.7z"/>
	</g>
</g>
<path id="water" class="st4" d="M9.9,24.7c0,5.6,4.5,10.1,10.1,10.1s10-4.5,10-10c0-5.8-10-19.4-10-19.4S9.9,19,9.9,24.7z"/>
<g id="wind" class="st0">
	<path class="st1" d="M7.1,34.5c-0.6,0-1-0.4-1-1v-27c0-0.6,0.4-1,1-1s1,0.4,1,1v27C8.1,34.1,7.7,34.5,7.1,34.5z"/>
	<g class="st2">
		<polygon class="st3" points="20.3,18.9 24.1,18.4 24.1,8 20.3,7.6 		"/>
		<path class="st3" d="M32.1,8.9l-2.5-0.3v9.2l2.5-0.3c1-0.1,1.8-1,1.8-2v-4.5C33.9,10,33,9,32.1,8.9z"/>
		<path class="st3" d="M14.9,6.9l-2.6-0.3c-1-0.1-1.8,0.6-1.8,1.6v10c0,1,0.8,1.7,1.8,1.6l2.6-0.3V6.9z"/>
	</g>
</g>
</svg>
